<svg xmlns="http://www.w3.org/2000/svg" viewBox="0 0 76.18 87.65"><defs><style>.cls-1{fill:#464342;}</style></defs><g id="Layer_2" data-name="Layer 2"><g id="OBJECTS"><path class="cls-1" d="M22.09,23.28l15.5,8.95a1,1,0,0,0,.5.13,1,1,0,0,0,.5-.13l15.49-8.95a1,1,0,0,0,0-1.73l-15.49-9a1,1,0,0,0-1,0l-15.5,9a1,1,0,0,0,0,1.73Zm16-8.66,13.49,7.79-13.49,7.8-13.5-7.8Z"/><path class="cls-1" d="M75.68,21.55,38.59.13a1,1,0,0,0-1,0L.5,21.55a1,1,0,0,0-.5.86V65.24a1,1,0,0,0,.5.87L37.59,87.52a1,1,0,0,0,.5.13,1,1,0,0,0,.5-.13L75.68,66.11a1,1,0,0,0,.5-.87V22.41A1,1,0,0,0,75.68,21.55ZM2,23,38.09,2.16,73.18,22.41,38.09,42.67,15.24,29.48a1,1,0,0,0-1,0,1,1,0,0,0-.5.87V71.44L2,64.66ZM37.09,84.92,15.74,72.6V32.08L37.09,44.4ZM74.18,64.66,39.09,84.92V44.4L74.18,24.15Z"/></g></g></svg>